<svg width="94" height="142" viewBox="0 0 94 142" fill="none" xmlns="http://www.w3.org/2000/svg">
<path d="M94 23.6625V71.0126C94 84.0773 83.475 94.675 70.5 94.675C57.525 94.675 47.2 105.046 47 117.935C47 117.96 47 118.01 47 118.035C47 118.136 47 118.237 47 118.338C47 118.438 47 118.539 47 118.64C46.825 131.578 36.375 142 23.5 142C10.625 142 0.15 131.578 0 118.64V118.035C0.175 105.097 10.625 94.675 23.5 94.675C36.375 94.675 46.85 84.2535 47 71.3147C47 71.3398 47 71.3902 47 71.4153V23.2597C47.225 10.3712 57.65 0 70.5 0C83.35 0 94 10.5978 94 23.6625Z" fill="#F76F8E"/>
</svg>
