<svg width="231" height="223" viewBox="0 0 231 223" fill="none" xmlns="http://www.w3.org/2000/svg">
<path d="M231 27.875C231 43.2656 218.595 55.75 203.303 55.75C188.011 55.75 175.783 68.0269 175.606 83.2692C175.606 83.3285 175.606 83.3878 175.606 83.4471C175.606 83.5064 175.606 83.5657 175.606 83.625C175.606 83.6843 175.606 83.7436 175.606 83.8029V83.8622C175.488 99.1638 163.113 111.5 147.909 111.5C132.705 111.5 120.212 123.984 120.212 139.375C120.212 139.256 120.212 139.138 120.212 139.019V139.731C120.006 154.973 107.689 167.25 92.5147 167.25H37.0912C21.9462 167.25 9.62983 179.468 9.39411 194.651C9.39411 194.68 9.39411 194.74 9.39411 194.769C9.39411 194.888 9.39411 195.006 9.39411 195.125C9.39411 195.244 9.39411 195.362 9.39411 195.481C9.18785 210.723 -3.1285 223 -18.3029 223C-33.4774 223 -46 210.516 -46 195.125C-46 179.734 -33.5953 167.25 -18.3029 167.25C-3.01064 167.25 9.21732 154.973 9.39411 139.731C9.39411 139.761 9.39411 139.82 9.39411 139.849V138.901C9.65929 123.718 21.9462 111.5 37.0912 111.5H92.5147C107.807 111.5 120.212 99.0156 120.212 83.625C120.212 68.2345 132.617 55.75 147.909 55.75C163.201 55.75 175.518 43.3545 175.606 28.0529V27.5191C175.812 12.2769 188.128 0 203.303 0C218.477 0 231 12.4844 231 27.875Z" fill="#BCE3D1"/>
</svg>
