<svg width="74" height="191" viewBox="0 0 74 191" fill="none" xmlns="http://www.w3.org/2000/svg">
<path d="M71.25 191C64.7001 191 58.7626 188.323 54.4492 184.014C50.1625 179.705 47.5 173.736 47.5 167.125V71.625C47.5 65.0406 44.8374 59.0719 40.5507 54.7359C36.264 50.4266 30.3265 47.75 23.75 47.75C17.1734 47.75 11.2626 45.0734 6.94923 40.7642C2.66252 36.4549 0 30.4861 0 23.875C0 10.6795 10.6236 0 23.75 0C30.2998 0 36.2373 2.67657 40.5507 6.98585C44.8374 11.2951 47.5 17.2639 47.5 23.875C47.5 30.4861 50.1625 36.4281 54.4492 40.7642C58.736 45.0734 64.6734 47.75 71.25 47.75C77.8265 47.75 83.7373 50.4266 88.0507 54.7359C92.3374 59.0451 95 65.0139 95 71.625V167.125C95 173.709 92.3374 179.678 88.0507 184.014C83.764 188.323 77.8265 191 71.25 191Z" fill="#2F31F5"/>
</svg>
