<svg width="105" height="103" viewBox="0 0 105 103" fill="none" xmlns="http://www.w3.org/2000/svg">
<path d="M105 157.542V131.62C105 131.62 105 131.397 105 131.285C105 116.788 93.2433 105.028 78.75 105.028C64.3683 105.028 52.6676 93.4358 52.5 79.1061C52.5 78.9944 52.5 78.8827 52.5 78.771C52.5 78.6592 52.5 78.5475 52.5 78.4358C52.6676 64.1899 64.2008 52.6816 78.4149 52.514C78.4707 52.514 78.5266 52.514 78.5824 52.514C78.6383 52.514 78.6941 52.514 78.75 52.514C78.8058 52.514 78.8617 52.514 78.9176 52.514H78.9734C93.2992 52.4022 104.888 40.8101 105 26.4804V26.4246C105 26.4246 105 26.3128 105 26.257C105 26.2011 105 26.1453 105 26.0894V26.0335C104.888 11.6201 93.1595 0 78.75 0C64.3404 0 52.6676 11.5642 52.5 25.9218C52.5 26.0335 52.5 26.1453 52.5 26.257C52.5 26.3687 52.5 26.4804 52.5 26.5922C52.3045 40.8939 40.7154 52.4302 26.4176 52.514H25.9149C11.6449 52.7095 0.111702 64.2737 0 78.5475C0 78.5475 0 78.5475 0 78.5754V78.9106C0 78.9106 0 78.9106 0 78.9386C0.111702 93.352 11.8404 104.972 26.25 104.972C40.6596 104.972 52.3324 116.536 52.5 130.894C52.5 130.922 52.5 130.978 52.5 131.006V131.397C52.5 131.397 52.5 131.508 52.5 131.564V183.408C52.5 183.408 52.5 183.52 52.5 183.575V183.911C52.5838 198.352 64.3125 210 78.75 210C93.1875 210 105 198.24 105 183.743V157.486M78.387 157.542C78.387 157.542 78.6104 157.542 78.7221 157.542C78.8338 157.542 78.9455 157.542 79.0572 157.542H78.387Z" fill="#F76F8E"/>
</svg>
