<svg width="125" height="264" viewBox="0 0 125 264" fill="none" xmlns="http://www.w3.org/2000/svg">
<path d="M72.3147 211.09H125V237.136C125 237.136 125 237.248 125 237.304C125 237.361 125 237.417 125 237.473C125 237.529 125 237.585 125 237.641V237.697C124.888 252.18 113.124 263.856 98.6713 263.856C84.2186 263.856 72.5107 252.236 72.3427 237.81V211.062L72.3147 211.09Z" fill="#2F31F5"/>
<path d="M125 184.539C125 184.539 125 184.651 125 184.707C125 184.763 125 184.819 125 184.876C125 184.932 125 184.988 125 185.044V211.09H72.3145V184.539C72.2304 170.028 60.4666 158.324 45.9858 158.324C31.5051 158.324 19.8253 146.705 19.6572 132.279V105.531V79.485C19.6572 79.485 19.6572 79.3727 19.6572 79.3166V78.9798C19.6572 78.9798 19.6572 78.8675 19.6572 78.8114C19.4612 64.3851 7.75335 52.7655 -6.67136 52.7655C-21.0961 52.7655 -33 40.9494 -33 26.3827C-33 11.8161 -21.2081 0 -6.67136 0C7.86539 0 19.5452 11.7038 19.6572 26.1582V26.2143C19.6572 26.2143 19.6572 26.3266 19.6572 26.3827C19.6572 26.4389 19.6572 26.495 19.6572 26.5511C19.6572 26.6073 19.6572 26.6634 19.6572 26.7195C19.8533 41.1458 31.5611 52.7655 45.9858 52.7655C60.4105 52.7655 72.3145 64.5816 72.3145 79.1482V105.531V131.577C72.3145 131.577 72.3145 131.801 72.3145 131.914C72.3145 132.026 72.3145 132.138 72.3145 132.25C72.5105 146.677 84.2183 158.296 98.6431 158.296C113.068 158.296 124.86 170 124.972 184.455V184.511L125 184.539Z" fill="#2F31F5"/>
</svg>
