<svg width="121" height="133" viewBox="0 0 121 133" fill="none" xmlns="http://www.w3.org/2000/svg">
<path d="M175.177 110.241C175.177 110.241 175.177 110.428 175.177 110.522C175.013 122.578 165.229 132.289 153.174 132.289C141.119 132.289 131.241 122.484 131.171 110.381V110.1C131.171 110.1 131.171 110.006 131.171 109.959C131.031 97.9969 121.364 88.3332 109.449 88.1925C109.402 88.1925 109.356 88.1925 109.309 88.1925C109.262 88.1925 109.215 88.1925 109.168 88.1925C109.122 88.1925 109.075 88.1925 109.028 88.1925C108.981 88.1925 108.934 88.1925 108.887 88.1925H87.1654V44.0728H109.473C121.41 44.2135 131.054 53.9006 131.195 65.8394V66.4023C131.195 66.4023 131.195 66.3085 131.195 66.2616C131.265 78.3412 141.026 88.0986 153.057 88.169H153.478C165.416 88.3097 175.06 97.9968 175.2 109.936C175.2 110.03 175.2 110.123 175.2 110.217L175.177 110.241Z" fill="#BCE3D1"/>
<path d="M88.0116 44.0728V88.1926H66.2896C66.2896 88.1926 66.196 88.1926 66.1491 88.1926C66.1023 88.1926 66.0555 88.1926 66.0087 88.1926C65.9619 88.1926 65.9151 88.1926 65.8683 88.1926H65.8214C53.8369 88.0987 44.1463 78.4116 44.0058 66.4259V65.9568C44.0058 65.9568 44.0058 65.8864 44.0058 65.863C43.8654 53.9007 34.2215 44.237 22.2838 44.0963C22.237 44.0963 22.1901 44.0963 22.1433 44.0963C22.0965 44.0963 22.0497 44.0963 22.0029 44.0963C21.9561 44.0963 21.9093 44.0963 21.8624 44.0963H21.8156C9.73744 44.0024 0 34.1512 0 22.0481C0 9.94512 9.85448 0 22.0029 0C34.1513 0 43.9122 9.78093 44.0058 21.8605V21.9074C44.0058 21.9074 44.0058 22.0012 44.0058 22.0481C44.0058 22.0951 44.0058 22.142 44.0058 22.1889C44.0058 22.2358 44.0058 22.2827 44.0058 22.3296C44.1697 34.3388 53.8837 44.0259 65.8683 44.0963H88.035L88.0116 44.0728Z" fill="#BCE3D1"/>
</svg>
