<svg width="108" height="34" viewBox="0 0 108 34" fill="none" xmlns="http://www.w3.org/2000/svg">
<g clip-path="url(#clip0_195_1687)">
<path d="M54.2325 30.2924V15.597C54.2325 14.5859 53.8256 13.6674 53.1696 13.0017C52.8292 12.6562 52.4306 12.3866 51.9822 12.2012C51.6168 12.0496 51.2182 11.9906 50.8196 12.0074C50.7781 12.0074 50.7366 12.0074 50.6951 12.0074C49.6986 12.0074 48.7935 12.4203 48.1375 13.086C47.4815 13.7517 47.0746 14.6701 47.0746 15.6813V30.3767C47.0746 31.3878 47.4815 32.3063 48.1375 32.972C48.4779 33.3175 48.8765 33.5871 49.3249 33.7725C49.6903 33.9242 50.0889 33.9831 50.4875 33.9663C50.529 33.9663 50.5705 33.9663 50.612 33.9663C51.6085 33.9663 52.5136 33.5534 53.1696 32.8877C53.8256 32.222 54.2325 31.3036 54.2325 30.2924Z" fill="#2F31F5"/>
<path d="M89.9059 30.2924V15.597C89.9059 14.5859 89.499 13.6674 88.843 13.0017C88.5026 12.6562 88.104 12.3866 87.6556 12.2012C87.2902 12.0496 86.8916 11.9906 86.493 12.0074C86.4515 12.0074 86.41 12.0074 86.3685 12.0074C85.372 12.0074 84.4669 12.4203 83.8109 13.086C83.1549 13.7517 82.748 14.6701 82.748 15.6813V30.3767C82.748 31.3878 83.1549 32.3063 83.8109 32.972C84.1513 33.3175 84.5499 33.5871 84.9983 33.7725C85.3637 33.9242 85.7623 33.9831 86.1609 33.9663C86.2024 33.9663 86.2439 33.9663 86.2854 33.9663C87.2819 33.9663 88.187 33.5534 88.843 32.8877C89.499 32.222 89.9059 31.3036 89.9059 30.2924Z" fill="#141414"/>
<path d="M62.5198 32.1462C61.5233 32.1462 60.6182 31.7333 59.9622 31.0676C59.3062 30.402 58.8993 29.4835 58.8993 28.4723V13.7769C58.8993 12.7658 58.4924 11.8473 57.8364 11.1816C57.1804 10.516 56.2753 10.1031 55.2788 10.1031C54.2823 10.1031 53.3772 9.69019 52.7212 9.02452C52.0652 8.35884 51.6583 7.44038 51.6583 6.42923C51.6583 4.39849 53.2776 2.75537 55.2788 2.75537C56.2753 2.75537 57.1804 3.16826 57.8364 3.83393C58.4924 4.49961 58.8993 5.41807 58.8993 6.42923C58.8993 7.44038 59.3062 8.35884 59.9622 9.02452C60.6182 9.69019 61.5233 10.1031 62.5198 10.1031C63.5162 10.1031 64.4214 10.516 65.0774 11.1816C65.7334 11.8473 66.1403 12.7658 66.1403 13.7769V28.4723C66.1403 29.4835 65.7334 30.402 65.0774 31.0676C64.4214 31.7333 63.5162 32.1462 62.5198 32.1462Z" fill="#2F31F5"/>
<path d="M74.4192 29.3993C73.4227 29.3993 72.5176 28.9864 71.8616 28.3207C71.2056 27.655 70.7987 26.7366 70.7987 25.7254V11.0216C70.7987 10.0104 70.3918 9.09195 69.7358 8.42627C69.0798 7.7606 68.1747 7.34771 67.1782 7.34771C66.1818 7.34771 65.2766 6.93482 64.6206 6.26915C63.9646 5.60347 63.5577 4.68501 63.5577 3.67385C63.5577 1.64312 65.177 0 67.1782 0C68.1747 0 69.0798 0.412887 69.7358 1.07856C70.3918 1.74424 70.7987 2.6627 70.7987 3.67385C70.7987 4.68501 71.2056 5.60347 71.8616 6.26915C72.5176 6.93482 73.4227 7.34771 74.4192 7.34771C75.4157 7.34771 76.3208 7.7606 76.9768 8.42627C77.6328 9.09195 78.0397 10.0104 78.0397 11.0216V25.717C78.0397 26.7281 77.6328 27.6466 76.9768 28.3123C76.3208 28.9779 75.4157 29.3908 74.4192 29.3908V29.3993Z" fill="#2F31F5"/>
<path d="M2.63232 32.458C0.905121 31.43 0.0332154 30.0481 0 28.3123C0 27.5624 0.298939 26.9388 0.905121 26.4248C0.930032 26.3995 0.954944 26.3827 0.979855 26.3658C2.06766 25.5232 3.67031 25.894 4.31801 27.1158C4.64186 27.7309 5.09027 28.2449 5.65493 28.6493C6.62648 29.3487 7.80563 29.7026 9.19237 29.7026C10.6954 29.7026 11.8745 29.5088 12.7298 29.1212C13.5851 28.7336 14.0086 28.1522 14.0086 27.3686C14.0086 26.6523 13.6598 26.0541 12.9706 25.5738C12.2814 25.0935 10.9196 24.6132 8.88513 24.1413C6.6763 23.602 4.9574 23.0627 3.73674 22.5234C2.51607 21.9842 1.61095 21.3016 1.02137 20.459C0.431801 19.6248 0.141166 18.5125 0.141166 17.1391C0.141166 15.2263 0.938336 13.6843 2.52437 12.5215C4.11041 11.3586 6.29433 10.7688 9.06781 10.7688C11.8413 10.7688 13.9754 11.2575 15.7441 12.2265C17.5128 13.1956 18.393 14.4932 18.393 16.1026C18.393 16.9116 18.0941 17.5098 17.5128 17.8974C17.4547 17.9396 17.3883 17.9733 17.3219 18.007C16.1427 18.6305 14.6895 18.1839 14.0003 17.0295C13.7097 16.5492 13.3526 16.1532 12.9208 15.833C12.0987 15.2347 10.9279 14.9398 9.43318 14.9398C8.31216 14.9398 7.34892 15.1336 6.53514 15.5212C5.72136 15.9088 5.32277 16.4144 5.32277 17.0464C5.32277 17.6783 5.66323 18.2092 6.33584 18.5715C7.01676 18.9339 8.19591 19.2878 9.87329 19.6501C13.1699 20.3663 15.5697 21.3269 17.0561 22.5234C18.5425 23.72 19.2899 25.3462 19.2899 27.4107C19.2899 29.4751 18.4097 31.0171 16.6575 32.2137C14.9054 33.4102 12.5139 34.0085 9.4747 34.0085C6.64309 34.0085 4.36783 33.4944 2.64893 32.458H2.63232Z" fill="#141414"/>
<path d="M83.7278 6.3197C83.0469 5.62875 82.6981 4.74399 82.6981 3.657C82.6981 2.57001 83.0386 1.72739 83.7278 1.03643C84.4087 0.345477 85.2806 0 86.3269 0C87.3732 0 88.2368 0.345477 88.926 1.03643C89.6069 1.72739 89.9557 2.59529 89.9557 3.657C89.9557 4.71871 89.6152 5.63718 88.926 6.3197C88.2451 7.01066 87.3732 7.35613 86.3269 7.35613C85.2806 7.35613 84.4087 7.01066 83.7278 6.3197Z" fill="#141414"/>
<path d="M103.383 30.8906C103.823 33.5449 100.527 35.1122 98.8076 33.0562C98.7993 33.0393 98.7827 33.0309 98.7744 33.014C97.6285 31.6069 97.0472 29.8036 97.0472 27.5875V16.4649H94.8135C93.2274 16.4649 92.314 14.6195 93.2772 13.3471C93.2772 13.3471 93.2855 13.3303 93.2939 13.3303C93.8253 12.6393 94.5311 12.3023 95.4113 12.3023H97.1385V8.57786C97.1385 7.35605 97.5786 6.47972 98.4672 5.95729C98.4755 5.95729 98.4838 5.94887 98.4921 5.94044C100.269 4.91244 102.486 6.23536 102.486 8.31665V12.3023H106.073C107.66 12.3023 108.59 14.1729 107.593 15.4284C107.568 15.4537 107.552 15.4874 107.527 15.5127C106.97 16.1531 106.065 16.4733 104.828 16.4733H102.578V27.3684C102.578 28.1015 102.677 28.6914 102.868 29.1295C103.084 29.6183 103.258 30.1323 103.342 30.6631L103.383 30.8991V30.8906Z" fill="#141414"/>
<path d="M32.7255 34.0001C31.2225 34.0001 28.1169 33.6462 26.9211 32.9468C25.7254 32.2474 24.787 31.2615 24.0895 30.006C23.4003 28.7505 23.0515 27.3265 23.0515 25.7423V14.1731C23.0515 12.9513 23.4999 12.0749 24.3967 11.5525C24.405 11.5525 24.4133 11.5441 24.4217 11.5356C26.2568 10.4908 28.5238 11.8643 28.5238 13.9961V25.3379C28.5238 26.5007 28.8808 27.4276 29.5867 28.1185C30.2925 28.8095 31.3886 29.1466 32.7172 29.1466C34.0458 29.1466 35.1419 28.8011 35.8478 28.1185C36.5536 27.4276 36.9107 26.5007 36.9107 25.3379V13.9961C36.9107 11.8558 39.1776 10.4824 41.0128 11.5356C41.0211 11.5356 41.0294 11.5441 41.0377 11.5525C41.9345 12.0749 42.3829 12.9513 42.3829 14.1731V25.7423C42.3829 27.3265 42.0341 28.7505 41.3449 30.006C40.6557 31.2615 39.7091 32.239 38.5133 32.9468C37.3175 33.6546 34.2119 34.0001 32.7089 34.0001H32.7255Z" fill="#141414"/>
</g>
<defs>
<clipPath id="clip0_195_1687">
<rect width="108" height="34" fill="white"/>
</clipPath>
</defs>
</svg>
