<svg width="175" height="54" viewBox="0 0 175 54" fill="none" xmlns="http://www.w3.org/2000/svg">
<g clip-path="url(#clip0_195_2263)">
<path d="M87.8768 48.1117V24.7719C87.8768 23.166 87.2174 21.7073 86.1545 20.65C85.6028 20.1013 84.9569 19.6731 84.2304 19.3786C83.6383 19.1377 82.9925 19.0441 82.3466 19.0708C82.2793 19.0708 82.2121 19.0708 82.1448 19.0708C80.5301 19.0708 79.0635 19.7266 78.0005 20.7838C76.9376 21.8411 76.2783 23.2998 76.2783 24.9058V48.2456C76.2783 49.8515 76.9376 51.3102 78.0005 52.3675C78.5522 52.9162 79.1981 53.3444 79.9247 53.6389C80.5167 53.8798 81.1625 53.9734 81.8084 53.9467C81.8757 53.9467 81.943 53.9467 82.0102 53.9467C83.6249 53.9467 85.0915 53.2909 86.1545 52.2337C87.2174 51.1764 87.8768 49.7177 87.8768 48.1117Z" fill="#2F31F5"/>
<path d="M145.681 48.1117V24.7719C145.681 23.166 145.022 21.7073 143.959 20.65C143.407 20.1013 142.761 19.6731 142.034 19.3786C141.442 19.1377 140.797 19.0441 140.151 19.0708C140.083 19.0708 140.016 19.0708 139.949 19.0708C138.334 19.0708 136.868 19.7266 135.805 20.7838C134.742 21.8411 134.082 23.2998 134.082 24.9058V48.2456C134.082 49.8515 134.742 51.3102 135.805 52.3675C136.356 52.9162 137.002 53.3444 137.729 53.6389C138.321 53.8798 138.967 53.9734 139.612 53.9467C139.68 53.9467 139.747 53.9467 139.814 53.9467C141.429 53.9467 142.896 53.2909 143.959 52.2337C145.022 51.1764 145.681 49.7177 145.681 48.1117Z" fill="#FCFCF5"/>
<path d="M101.305 51.0555C99.6905 51.0555 98.2239 50.3998 97.1609 49.3425C96.098 48.2853 95.4386 46.8265 95.4386 45.2206V21.8808C95.4386 20.2749 94.7793 18.8161 93.7164 17.7589C92.6534 16.7016 91.1868 16.0459 89.5721 16.0459C87.9575 16.0459 86.4909 15.3901 85.4279 14.3329C84.3649 13.2756 83.7056 11.8169 83.7056 10.2109C83.7056 6.98564 86.3294 4.37598 89.5721 4.37598C91.1868 4.37598 92.6534 5.03174 93.7164 6.08899C94.7793 7.14624 95.4386 8.60497 95.4386 10.2109C95.4386 11.8169 96.098 13.2756 97.1609 14.3329C98.2239 15.3901 99.6905 16.0459 101.305 16.0459C102.92 16.0459 104.386 16.7016 105.449 17.7589C106.512 18.8161 107.172 20.2749 107.172 21.8808V45.2206C107.172 46.8265 106.512 48.2853 105.449 49.3425C104.386 50.3998 102.92 51.0555 101.305 51.0555Z" fill="#2F31F5"/>
<path d="M120.587 46.6929C118.972 46.6929 117.505 46.0372 116.442 44.9799C115.379 43.9227 114.72 42.4639 114.72 40.858V17.5048C114.72 15.8989 114.061 14.4401 112.998 13.3829C111.935 12.3257 110.468 11.6699 108.854 11.6699C107.239 11.6699 105.772 11.0141 104.709 9.95688C103.646 8.89963 102.987 7.44089 102.987 5.83494C102.987 2.60967 105.611 0 108.854 0C110.468 0 111.935 0.655762 112.998 1.71301C114.061 2.77026 114.72 4.229 114.72 5.83494C114.72 7.44089 115.379 8.89963 116.442 9.95688C117.505 11.0141 118.972 11.6699 120.587 11.6699C122.201 11.6699 123.668 12.3257 124.731 13.3829C125.794 14.4401 126.453 15.8989 126.453 17.5048V40.8446C126.453 42.4506 125.794 43.9093 124.731 44.9665C123.668 46.0238 122.201 46.6796 120.587 46.6796V46.6929Z" fill="#2F31F5"/>
<path d="M4.26534 51.5511C1.46663 49.9184 0.0538213 47.7236 0 44.9667C0 43.7756 0.484392 42.7853 1.46663 41.9689C1.507 41.9288 1.54736 41.902 1.58773 41.8753C3.35038 40.537 5.94726 41.1258 6.99677 43.0663C7.52153 44.0433 8.24812 44.8597 9.16308 45.502C10.7374 46.6128 12.648 47.1749 14.895 47.1749C17.3305 47.1749 19.2411 46.8671 20.627 46.2515C22.0129 45.6359 22.6991 44.7124 22.6991 43.4678C22.6991 42.3303 22.134 41.3801 21.0172 40.6173C19.9004 39.8544 17.6938 39.0916 14.3972 38.3422C10.8181 37.4857 8.03283 36.6292 6.0549 35.7727C4.07696 34.9162 2.61033 33.8321 1.65501 32.4939C0.699677 31.1689 0.228741 29.4024 0.228741 27.221C0.228741 24.1831 1.52045 21.734 4.09042 19.8872C6.66039 18.0403 10.1991 17.1035 14.6932 17.1035C19.1873 17.1035 22.6453 17.8797 25.5113 19.4188C28.3773 20.9578 29.8036 23.0188 29.8036 25.5749C29.8036 26.8597 29.3192 27.8098 28.3773 28.4255C28.2831 28.4924 28.1755 28.5459 28.0678 28.5994C26.1572 29.5898 23.8025 28.8805 22.6857 27.047C22.2147 26.2842 21.6362 25.6552 20.9365 25.1466C19.6044 24.1965 17.7072 23.7281 15.2853 23.7281C13.4688 23.7281 11.908 24.0359 10.5893 24.6515C9.27072 25.2671 8.62487 26.0701 8.62487 27.0738C8.62487 28.0775 9.17653 28.9206 10.2664 29.4961C11.3698 30.0715 13.2804 30.6336 15.9984 31.2091C21.3402 32.3466 25.2287 33.8723 27.6372 35.7727C30.0458 37.673 31.2567 40.2559 31.2567 43.5347C31.2567 46.8136 29.8305 49.2626 26.9914 51.163C24.1523 53.0634 20.2772 54.0136 15.3525 54.0136C10.7643 54.0136 7.0775 53.1972 4.29225 51.5511H4.26534Z" fill="#FCFCF5"/>
<path d="M135.67 10.0372C134.567 8.93978 134.002 7.53457 134.002 5.80818C134.002 4.08179 134.553 2.74349 135.67 1.6461C136.773 0.548699 138.186 0 139.882 0C141.577 0 142.976 0.548699 144.093 1.6461C145.196 2.74349 145.762 4.12193 145.762 5.80818C145.762 7.49442 145.21 8.95316 144.093 10.0372C142.99 11.1346 141.577 11.6833 139.882 11.6833C138.186 11.6833 136.773 11.1346 135.67 10.0372Z" fill="#FCFCF5"/>
<path d="M167.519 49.0618C168.232 53.2774 162.89 55.7666 160.105 52.5012C160.091 52.4744 160.065 52.461 160.051 52.4342C158.194 50.1993 157.252 47.3354 157.252 43.8157V26.1502H153.633C151.063 26.1502 149.583 23.2194 151.144 21.1986C151.144 21.1986 151.157 21.1718 151.171 21.1718C152.032 20.0744 153.175 19.5391 154.602 19.5391H157.4V13.6238C157.4 11.6833 158.114 10.2915 159.553 9.46175C159.567 9.46175 159.58 9.44837 159.594 9.43499C162.473 7.80228 166.066 9.90339 166.066 13.209V19.5391H171.878C174.448 19.5391 175.955 22.5101 174.341 24.5041C174.3 24.5443 174.273 24.5978 174.233 24.638C173.332 25.6551 171.865 26.1636 169.86 26.1636H166.214V43.4677C166.214 44.632 166.375 45.5688 166.685 46.2647C167.034 47.0409 167.317 47.8573 167.452 48.7004L167.519 49.0751V49.0618Z" fill="#FCFCF5"/>
<path d="M53.0274 53.9999C50.592 53.9999 45.5597 53.4379 43.6222 52.3271C41.6846 51.2163 40.1642 49.6505 39.0339 47.6565C37.9171 45.6624 37.352 43.4007 37.352 40.8847V22.51C37.352 20.5695 38.0786 19.1776 39.5318 18.3479C39.5452 18.3479 39.5587 18.3345 39.5721 18.3211C42.5457 16.6617 46.219 18.8431 46.219 22.2289V40.2423C46.219 42.0892 46.7976 43.5613 47.9413 44.6587C49.085 45.7561 50.8611 46.2914 53.014 46.2914C55.1668 46.2914 56.9429 45.7427 58.0866 44.6587C59.2304 43.5613 59.8089 42.0892 59.8089 40.2423V22.2289C59.8089 18.8297 63.4822 16.6483 66.4559 18.3211C66.4693 18.3211 66.4828 18.3345 66.4962 18.3479C67.9494 19.1776 68.676 20.5695 68.676 22.51V40.8847C68.676 43.4007 68.1109 45.6624 66.9941 47.6565C65.8773 49.6505 64.3434 51.2029 62.4058 52.3271C60.4682 53.4512 55.4359 53.9999 53.0005 53.9999H53.0274Z" fill="#FCFCF5"/>
</g>
<defs>
<clipPath id="clip0_195_2263">
<rect width="175" height="54" fill="white"/>
</clipPath>
</defs>
</svg>
